<mxfile host="app.diagrams.net" modified="2023-04-30T09:25:06.615Z" agent="Mozilla/5.0 (Windows NT 10.0; Win64; x64) AppleWebKit/537.36 (KHTML, like Gecko) Chrome/112.0.0.0 Safari/537.36 Edg/112.0.1722.64" etag="Gxf0Ag_SwLeg6NUcSSWv" version="21.2.3" type="github">
  <diagram name="第 1 页" id="3thGuiAprRQyPqJnQOxM">
    <mxGraphModel dx="993" dy="573" grid="0" gridSize="10" guides="1" tooltips="1" connect="1" arrows="1" fold="1" page="1" pageScale="1" pageWidth="827" pageHeight="1169" math="0" shadow="0">
      <root>
        <mxCell id="0" />
        <mxCell id="1" parent="0" />
        <mxCell id="AUr2q-_A9TYGjcPhR-jA-1" value="医护人员" style="shape=umlActor;verticalLabelPosition=bottom;verticalAlign=top;html=1;outlineConnect=0;" parent="1" vertex="1">
          <mxGeometry x="140" y="270" width="30" height="60" as="geometry" />
        </mxCell>
        <mxCell id="AUr2q-_A9TYGjcPhR-jA-6" value="&lt;p class=&quot;MsoNormal&quot;&gt;添加免疫记录&lt;/p&gt;" style="ellipse;whiteSpace=wrap;html=1;" parent="1" vertex="1">
          <mxGeometry x="300" y="170" width="100" height="40" as="geometry" />
        </mxCell>
        <mxCell id="AUr2q-_A9TYGjcPhR-jA-15" value="" style="endArrow=none;html=1;rounded=0;entryX=0;entryY=0.5;entryDx=0;entryDy=0;" parent="1" target="AUr2q-_A9TYGjcPhR-jA-6" edge="1">
          <mxGeometry width="50" height="50" relative="1" as="geometry">
            <mxPoint x="180" y="300" as="sourcePoint" />
            <mxPoint x="230" y="260" as="targetPoint" />
          </mxGeometry>
        </mxCell>
        <mxCell id="AUr2q-_A9TYGjcPhR-jA-17" value="" style="endArrow=none;html=1;rounded=0;entryX=0;entryY=0.5;entryDx=0;entryDy=0;" parent="1" target="AUr2q-_A9TYGjcPhR-jA-8" edge="1">
          <mxGeometry width="50" height="50" relative="1" as="geometry">
            <mxPoint x="180" y="300" as="sourcePoint" />
            <mxPoint x="260" y="320" as="targetPoint" />
          </mxGeometry>
        </mxCell>
        <mxCell id="AUr2q-_A9TYGjcPhR-jA-20" value="" style="endArrow=none;html=1;rounded=0;entryX=0;entryY=0.5;entryDx=0;entryDy=0;" parent="1" target="AUr2q-_A9TYGjcPhR-jA-9" edge="1">
          <mxGeometry width="50" height="50" relative="1" as="geometry">
            <mxPoint x="180" y="300" as="sourcePoint" />
            <mxPoint x="240" y="350" as="targetPoint" />
          </mxGeometry>
        </mxCell>
        <mxCell id="AUr2q-_A9TYGjcPhR-jA-21" value="" style="endArrow=none;html=1;rounded=0;entryX=0;entryY=0.5;entryDx=0;entryDy=0;" parent="1" target="AUr2q-_A9TYGjcPhR-jA-10" edge="1">
          <mxGeometry width="50" height="50" relative="1" as="geometry">
            <mxPoint x="180" y="300" as="sourcePoint" />
            <mxPoint x="250" y="420" as="targetPoint" />
          </mxGeometry>
        </mxCell>
        <mxCell id="AUr2q-_A9TYGjcPhR-jA-22" value="" style="endArrow=none;html=1;rounded=0;entryX=0;entryY=0.5;entryDx=0;entryDy=0;" parent="1" target="AUr2q-_A9TYGjcPhR-jA-14" edge="1">
          <mxGeometry width="50" height="50" relative="1" as="geometry">
            <mxPoint x="180" y="300" as="sourcePoint" />
            <mxPoint x="270" y="420" as="targetPoint" />
          </mxGeometry>
        </mxCell>
        <mxCell id="AUr2q-_A9TYGjcPhR-jA-23" value="" style="swimlane;startSize=0;" parent="1" vertex="1">
          <mxGeometry x="228" y="130" width="240" height="372" as="geometry" />
        </mxCell>
        <mxCell id="AUr2q-_A9TYGjcPhR-jA-24" value="儿童免疫管理" style="text;html=1;align=center;verticalAlign=middle;resizable=0;points=[];autosize=1;strokeColor=none;fillColor=none;" parent="AUr2q-_A9TYGjcPhR-jA-23" vertex="1">
          <mxGeometry x="5" y="12" width="90" height="26" as="geometry" />
        </mxCell>
        <mxCell id="AUr2q-_A9TYGjcPhR-jA-8" value="&lt;p class=&quot;MsoNormal&quot;&gt;删除免疫记录&lt;/p&gt;" style="ellipse;whiteSpace=wrap;html=1;" parent="AUr2q-_A9TYGjcPhR-jA-23" vertex="1">
          <mxGeometry x="70" y="132" width="100" height="40" as="geometry" />
        </mxCell>
        <mxCell id="AUr2q-_A9TYGjcPhR-jA-9" value="&lt;p class=&quot;MsoNormal&quot;&gt;查询免疫记录&lt;/p&gt;" style="ellipse;whiteSpace=wrap;html=1;" parent="AUr2q-_A9TYGjcPhR-jA-23" vertex="1">
          <mxGeometry x="70" y="191" width="100" height="40" as="geometry" />
        </mxCell>
        <mxCell id="AUr2q-_A9TYGjcPhR-jA-10" value="&lt;p class=&quot;MsoNormal&quot;&gt;修改免疫记录&lt;/p&gt;" style="ellipse;whiteSpace=wrap;html=1;" parent="AUr2q-_A9TYGjcPhR-jA-23" vertex="1">
          <mxGeometry x="70" y="252" width="100" height="40" as="geometry" />
        </mxCell>
        <mxCell id="AUr2q-_A9TYGjcPhR-jA-14" value="导出免疫记录" style="ellipse;whiteSpace=wrap;html=1;" parent="AUr2q-_A9TYGjcPhR-jA-23" vertex="1">
          <mxGeometry x="70" y="313" width="100" height="40" as="geometry" />
        </mxCell>
      </root>
    </mxGraphModel>
  </diagram>
</mxfile>
